<?xml version="1.0" encoding="UTF-8"?>
<svg id="Layer_2" data-name="Layer 2" xmlns="http://www.w3.org/2000/svg" viewBox="0 0 355.96 140.81">
  <defs>
    <style>
      .cls-1 {
        fill: #fff;
      }
    </style>
  </defs>
  <g id="Layer_1-2" data-name="Layer 1">
    <g>
      <path class="cls-1" d="M273.64,50.86c1.5,1.81,4.52,1.49,6.75,1.61,7.3.1,14.02.18,21.49.59,7.55.43,15.44,1.12,22.29,3.14,1.74.53,3.45,1.19,5.03,2.06,6.38,3.36,8.79,10.09,9.03,17.02.25,5.88-.57,11.76-1.48,17.49-1.37,8.83-3.61,16.81-8.55,24.76-9.4,15.74-21.61,20.87-39.35,21.97-5.82.41-11.65.53-17.43.68-22.51.42-45.9,1.14-68.32-.17-6.62-.83-6.28-5.56-4.82-10.88.84-3.2,1.81-6.38,2.35-9.65.92-5.49,1.04-11.22,7.79-12.12,1.44-.22,2.98-.22,4.46-.21,17.19.21,34.39-.13,51.59-.06,5.4-.12,12.05.46,16.15-3.64,2.58-2.69,3.91-7.36,3.01-10.73-.51-1.87-1.83-3.21-3.74-4.08-2.53-1.13-5.56-1.47-8.32-1.78-17.66-1.81-35.6-.38-53.34-.91-9.85-.74-5.7-8.42-4.45-14.84,2.27-8.78,4.54-17.63,6.93-26.4,3.15-11.98,5.85-24.08,8.88-36.09.66-2.78,1.6-6.01,4.11-7.44,1.72-1.07,4.27-1.22,6.43-1.17,36,.5,72.02,0,108.04.08,1.31,0,2.75.06,3.93.37,3.85.91,4.27,4.13,3.63,7.46-.46,2.51-1.22,4.95-1.84,7.42-.62,2.43-1.25,4.86-1.91,7.28-1.3,4.99-3.06,9.23-8.63,9.87-1.93.26-3.98.2-5.94.17-17.49-.41-34.99-.53-52.48-.57-2.63.02-5.84.02-7.88,1.74-2.3,1.91-2.59,5.32-3.14,8.29-.35,2.62-1.9,6.46-.26,8.7l.02.03Z"/>
      <path class="cls-1" d="M194.28,76.66c-16.69,14.49-40.68,5.53-59.66,12.36-5.66,1.94-9.66,5.8-12.48,11.02-1.73,3-2.61,6.2,1.53,7.02,3.19.58,6.92.45,10.25.49,3.31-.01,6.63-.1,9.93-.14,11.24-.18,22.49.54,33.78.68,3.85.23,10.81-1.06,12.17,3.64.52,1.9.05,4.03-.4,5.96-.59,2.4-1.18,4.8-1.77,7.2-.53,2.13-1.05,4.3-1.56,6.49-.6,2.52-1.31,5.37-3.38,7.02-1.3,1.05-2.89,1.43-4.75,1.62-25.8.81-51.71-.46-77.54.17-2.99.05-5.95.07-8.93.04-7.88-.24-15.94.29-23.84-.16-7.8-.69-7.39-4.4-5.72-10.9,1.04-4.6,1.72-9.21,3.04-13.73,1.08-3.83,2.23-7.66,3.25-11.51,3.99-15.56,8.18-31.8,22.44-40.91,7.71-5.2,16.86-7.48,26-8.06,10.04-.77,20.3.34,30.38-.56,5.14-.46,10.38-3.16,12.39-8.11,1.82-4.13,1.53-9.87-3.04-12-2.31-1.16-5-1.43-7.66-1.69-13.52-1.09-27.46-.35-40.99-.5-3.31-.09-6.71.09-9.99-.41-4.79-.76-5.42-3.92-4.44-8.16,1.3-5.33,2.15-10.79,3.36-16.14.95-4.25,3.04-6.81,7.76-7.01,28.97.33,58.08-1.38,86.96.57,6.01.65,12.43,2.05,17.08,5.97,4.26,3.55,6.29,9.13,6.43,14.59.26,7.29-1.05,16.15-2.64,23.56-2.53,11.94-8.48,23.62-17.92,31.55l-.04.03Z"/>
      <path class="cls-1" d="M.68,129.8c.49-2.22,1.2-4.28,1.84-6.5,1.4-4.98,2.83-10.15,4.2-15.18,1.36-5.65,2.98-11.14,4.19-16.85,3.88-16.96,9.35-33.51,13.18-50.49,2.01-8.16,3.1-11.8,11.14-15.62,11.81-5.43,23.32-11.51,34.87-17.4,1.96-1.02,3.91-2.06,5.89-3.06,1.51-.77,3.26-1.62,4.84-1.94,3.67-.82,4.46,1.56,4.11,4.82-.31,2.79-1.03,5.74-1.62,8.39-4.48,18.85-10.07,37.42-15.24,56.07-5.57,20.04-11.33,40.03-15.88,60.32-.38,1.67-.81,3.38-1.37,4.9-.68,1.75-1.29,2.74-2.58,3.17-9.5.76-34.2.1-43.91.37-1.56.04-3.28-.03-3.85-1.67-.9-2.66-.45-6.39.16-9.28v-.05Z"/>
    </g>
  </g>
</svg>